<?xml version="1.0" encoding="UTF-8"?>
<svg width="12px" height="23px" viewBox="0 0 12 23" version="1.1" xmlns="http://www.w3.org/2000/svg" xmlns:xlink="http://www.w3.org/1999/xlink">
    <title>Fill 7</title>
    <g id="Site" stroke="none" stroke-width="1" fill="none" fill-rule="evenodd">
        <g id="Extra-Large" transform="translate(-1791.000000, -51.000000)" fill="#000000">
            <g id="Fill-7" transform="translate(1791.000000, 51.000000)">
                <path d="M10.8331794,0.0604502343 C11.2301592,0.0768769284 11.6271389,0.134041824 12,0.175437093 L11.9719702,3.87867101 C11.8585474,3.87867101 11.7692433,3.87867101 11.6799392,3.87867101 C11.2764409,3.87867101 10.8735944,3.87341447 10.470748,3.87341447 C10.1682873,3.87341447 9.8658265,3.87604274 9.56271389,3.88655582 C8.58949427,3.91940921 7.87310555,4.28736716 7.82291271,5.51345561 C7.79227552,6.39655468 7.77011244,8.34607473 7.76880873,8.44857731 C7.81965343,8.44857731 8.78179152,8.45186264 9.75044815,8.45186264 C10.2341246,8.45186264 10.7073714,8.45120558 11.0372101,8.44857731 C11.2888261,8.44857731 11.5397903,8.44857731 11.8239991,8.44857731 C11.626487,9.87047195 11.4459232,11.2365158 11.249063,12.6097875 L7.77011244,12.6097875 L7.69123798,23 L3.41702428,23 L3.49524689,12.5933608 L0,12.5933608 L0.0312890434,8.45646212 L3.54348417,8.45646212 L3.54543973,8.14566907 C3.55195828,7.31185007 3.54218046,6.47803108 3.57216579,5.64421209 C3.58455103,5.12118615 3.6125808,4.58173352 3.70644793,4.05805051 C3.94241947,2.79122386 4.52648161,1.72808822 5.5785757,0.967860816 C6.50029877,0.30553651 7.54848172,0.0282539138 8.65989462,0.00328533882 C8.7733174,0.000657067764 8.88674018,0 9.00016296,0 C9.61029931,0 10.2249986,0.0328533882 10.8331794,0.0604502343 Z" id="Fill-5"></path>
            </g>
        </g>
    </g>
</svg>