<?xml version="1.0" encoding="UTF-8"?>
<svg width="23px" height="22px" viewBox="0 0 23 22" version="1.1" xmlns="http://www.w3.org/2000/svg" xmlns:xlink="http://www.w3.org/1999/xlink">
    <title>Group 5</title>
    <g id="Site" stroke="none" stroke-width="1" fill="none" fill-rule="evenodd">
        <g id="Extra-Large" transform="translate(-1698.000000, -9021.000000)" fill="#FFFFFF">
            <g id="Group-5" transform="translate(1698.546383, 9021.666567)">
                <g id="Group-2" transform="translate(0.453617, 0.333433)">
                    <path d="M16.1384029,3.6525276 L16.1539879,3.6525276 C16.8458227,3.6525276 17.4062022,4.21721867 17.4007813,4.91748983 C17.3953605,5.60962619 16.8261722,6.17431726 16.126206,6.17431726 C15.4269175,6.16618245 14.8746694,5.60081348 14.8800902,4.90935503 C14.885511,4.21450707 15.4458905,3.6525276 16.1384029,3.6525276" id="Fill-13"></path>
                    <path d="M18.8522115,15.7645749 C19.1530682,13.9172961 19.1544234,7.17828782 18.9816341,5.44896378 C18.7932599,3.60168507 17.6643697,2.38756537 15.8375463,2.10081348 C14.9329434,1.96319969 12.7551205,1.90218865 10.5881393,1.90218865 C8.4977274,1.90218865 6.41680202,1.95913229 5.50135748,2.05810575 C3.6704684,2.26893279 2.43925986,3.39967073 2.14721205,5.22118923 C1.84567776,7.1532055 1.84974339,14.3728452 2.0747083,15.8235522 C2.30780447,17.3332365 3.16023173,18.3704242 4.66587035,18.7920782 C5.48035172,19.0205307 7.92040782,19.1025567 10.312354,19.1025567 C12.5145707,19.1025567 14.6768087,19.0327329 15.4899348,18.9446058 C17.337764,18.7419136 18.5601637,17.6030409 18.8522115,15.7645749 M20.8714748,5.27203176 C21.027324,6.92543095 21.1282872,14.735522 20.6417667,16.5658532 C19.9912658,18.9608755 18.4293859,20.3783653 16.0069475,20.7661243 C15.1016671,20.9118729 12.6568677,21 10.2154564,21 C7.71577107,21 5.22015135,20.9078055 4.38127619,20.6901995 C2.00017173,20.0746659 0.579233759,18.5229518 0.201130092,16.1103041 C-0.0807536455,14.3389502 -0.110568272,6.10720511 0.400346003,4.31890374 C1.06710946,1.99099361 2.62085804,0.62434631 4.97553589,0.236587255 C6.04276399,0.0616889405 8.12978781,0 10.2364622,0 C12.1967739,0 14.1740256,0.0535541352 15.3632227,0.118632578 C16.8044888,0.194557428 18.1244636,0.658241333 19.1957573,1.68729421 C20.2169083,2.66550455 20.7386642,3.88911486 20.8714748,5.27203176" id="Fill-14"></path>
                    <path d="M10.4661703,13.9850862 C12.3743064,13.9850862 13.9456727,12.447608 13.9768425,10.5352508 C14.00869,8.60391245 12.47798,7.03457292 10.5556142,7.01762541 L10.5244444,7.01762541 C8.6163083,7.01762541 7.04561959,8.55510362 7.01377215,10.4674608 C6.98260231,12.3906643 8.51330445,13.9681387 10.4350005,13.9850862 L10.4661703,13.9850862 M10.5454501,5.120158 C13.512683,5.120158 15.9053068,7.53282975 15.8829458,10.5101685 C15.8599072,13.4786946 13.4306928,15.8906643 10.454651,15.8906643 C7.47860927,15.8906643 5.09411679,13.4786946 5.11647776,10.5013558 C5.13951634,7.52401704 7.56873076,5.11136936 10.5454501,5.120158" id="Fill-15"></path>
                </g>
            </g>
        </g>
    </g>
</svg>