<?xml version="1.0" encoding="UTF-8"?>
<svg width="13px" height="23px" viewBox="0 0 13 23" version="1.1" xmlns="http://www.w3.org/2000/svg" xmlns:xlink="http://www.w3.org/1999/xlink">
    <title>Fill 6</title>
    <g id="Site" stroke="none" stroke-width="1" fill="none" fill-rule="evenodd">
        <g id="Extra-Large" transform="translate(-1791.000000, -9020.000000)" fill="#FFFFFF">
            <g id="Fill-6" transform="translate(1791.805021, 9020.000000)">
                <path d="M10.0281581,0.0604502343 C10.4251378,0.0768769284 10.8221176,0.134041824 11.1949787,0.175437093 L11.1669489,3.87867101 C11.0535261,3.87867101 10.964222,3.87867101 10.8749178,3.87867101 C10.4714195,3.87867101 10.0685731,3.87341447 9.66572667,3.87341447 C9.36326592,3.87341447 9.06080517,3.87604274 8.75769256,3.88655582 C7.78447294,3.91940921 7.06808421,4.28736716 7.01789137,5.51345561 C6.98725418,6.39655468 6.96509111,8.34607473 6.9637874,8.44857731 C7.0146321,8.44857731 7.97677018,8.45186264 8.94542682,8.45186264 C9.42910328,8.45186264 9.90235006,8.45120558 10.2321887,8.44857731 C10.4838048,8.44857731 10.734769,8.44857731 11.0189778,8.44857731 C10.8214657,9.87047195 10.6409019,11.2365158 10.4440416,12.6097875 L6.96509111,12.6097875 L6.88621665,23 L2.61200295,23 L2.69022556,12.5933608 L-0.805021333,12.5933608 L-0.773732289,8.45646212 L2.73846283,8.45646212 L2.7404184,8.14566907 C2.74693695,7.31185007 2.73715912,6.47803108 2.76714446,5.64421209 C2.7795297,5.12118615 2.80755947,4.58173352 2.9014266,4.05805051 C3.13739814,2.79122386 3.72146028,1.72808822 4.77355436,0.967860816 C5.69527743,0.30553651 6.74346039,0.0282539138 7.85487328,0.00328533882 C7.96829607,0.000657067764 8.08171885,0 8.19514163,0 C8.80527798,0 9.41997731,0.0328533882 10.0281581,0.0604502343 Z" id="Fill-5"></path>
            </g>
        </g>
    </g>
</svg>