<?xml version="1.0" encoding="UTF-8"?>
<svg width="23px" height="23px" viewBox="0 0 23 23" version="1.1" xmlns="http://www.w3.org/2000/svg" xmlns:xlink="http://www.w3.org/1999/xlink">
    <title>Group 9</title>
    <g id="Site" stroke="none" stroke-width="1" fill="none" fill-rule="evenodd">
        <g id="Extra-Large" transform="translate(-1744.000000, -51.000000)" fill="#000000">
            <g id="Group-9" transform="translate(1744.000000, 51.000000)">
                <path d="M7.7119954,6.14303005 C7.93076552,6.14303005 8.15441269,6.18200248 8.37178938,6.21888711 C8.50207605,6.23628552 8.62191192,6.42697207 8.69019049,6.5654634 C9.005108,7.30176405 9.32002551,8.03736876 9.59174637,8.79106781 C9.74502481,9.18914339 9.46494331,9.57051651 8.87900166,10.2281763 C8.69506753,10.4362613 8.65883809,10.6352991 8.79609196,10.8774849 C9.71994288,12.462132 11.0200227,13.6055554 12.7402248,14.2806136 C12.8182574,14.3105389 12.8893229,14.3244576 12.9555113,14.3244576 C13.1025192,14.3244576 13.225142,14.2534721 13.3394041,14.1163727 C14.0744439,13.2297498 14.2841566,12.8414173 14.5816561,12.8414173 C14.6562052,12.8414173 14.736328,12.8657751 14.8310819,12.9124028 C17.1281683,14.0119822 17.3100123,14.0558262 17.3169795,14.3154105 C17.3768974,16.1596417 15.7688673,16.8841115 14.6798937,16.8841115 L14.514771,16.878544 C12.2873567,16.7999032 8.74662483,15.0426639 6.34294029,10.8169385 C5.4964253,9.31928349 5.63089229,7.61354353 6.90519346,6.43532331 C7.14834879,6.20983993 7.42564341,6.14303005 7.7119954,6.14303005" id="Fill-19"></path>
                <path d="M13.0112489,20.835638 C18.2011173,20.0039941 21.7829556,15.1637568 21.0339815,10.0033889 C20.3372613,5.24179249 16.3081287,1.87902811 11.6860872,1.87902811 C11.1133832,1.87902811 10.5323186,1.92983146 9.94707365,2.03700566 C3.52331382,3.21452994 0.0620080938,10.3583164 3.20839631,16.0211504 C3.55954327,16.6447094 3.65081361,17.1638779 3.40278124,17.8305849 C3.11921613,18.6364792 2.93946233,19.4674272 2.68097916,20.37632 C3.81941989,20.0819389 4.87007388,19.8223547 5.91236724,19.5279736 C6.00990806,19.502224 6.09908824,19.4896971 6.18478482,19.4896971 C6.35966157,19.4896971 6.51781705,19.5418923 6.69199709,19.6407153 C8.19342902,20.5099398 9.77986082,20.9622984 11.4554728,20.9622984 C11.9654719,20.9622984 12.4838317,20.9198463 13.0112489,20.835638 M13.4822317,22.671518 C12.8078066,22.7863475 12.1410454,22.8434143 11.4819482,22.8434143 C9.71576256,22.8434143 8.0060113,22.4328119 6.36453862,21.6317892 C6.22658803,21.5628915 6.05310471,21.5280946 5.89146563,21.5280946 C5.81064609,21.5280946 5.73261344,21.5371418 5.66294142,21.5545402 C2.63220875,22.3158946 0.616597337,22.8789071 0,23 C0.13377027,22.5065811 0.250122536,22.0737087 0.365778081,21.6408363 C0.758031529,20.2552271 1.15864562,18.878665 1.5244237,17.4930558 C1.57807115,17.2849708 1.56274331,17.0170353 1.46868609,16.8263488 C-1.99958684,10.1418802 1.69442342,2.04535689 9.07617346,0.313867288 C9.98818014,0.100910769 10.8855557,0 11.7606362,0 C17.3225532,0 21.9132423,4.07818693 22.825249,9.29283791 C23.9211898,15.5966292 19.7492295,21.5712427 13.4822317,22.671518 Z" id="Fill-20"></path>
            </g>
        </g>
    </g>
</svg>